<mxfile host="app.diagrams.net" modified="2020-04-25T13:10:05.883Z" agent="5.0 (X11; Linux x86_64) AppleWebKit/537.36 (KHTML, like Gecko) Chrome/78.0.3904.97 Safari/537.36" etag="XPx6US72zjOqevkVBcaq" version="13.0.1" type="github">
  <diagram name="Page-1" id="9361dd3d-8414-5efd-6122-117bd74ce7a7">
    <mxGraphModel dx="1102" dy="1410" grid="1" gridSize="10" guides="1" tooltips="1" connect="1" arrows="1" fold="1" page="0" pageScale="1.5" pageWidth="826" pageHeight="1169" background="none" math="0" shadow="0">
      <root>
        <mxCell id="0" />
        <mxCell id="1" parent="0" />
        <mxCell id="2ROspNdm_TZ6yF2tN0B7-89" value=":Object" style="shape=umlLifeline;perimeter=lifelinePerimeter;whiteSpace=wrap;html=1;container=1;collapsible=0;recursiveResize=0;outlineConnect=0;" vertex="1" parent="1">
          <mxGeometry x="150" y="-490" width="100" height="300" as="geometry" />
        </mxCell>
        <mxCell id="2ROspNdm_TZ6yF2tN0B7-91" value="dispatch" style="html=1;verticalAlign=bottom;startArrow=oval;startFill=1;endArrow=block;startSize=8;" edge="1" parent="2ROspNdm_TZ6yF2tN0B7-89" target="2ROspNdm_TZ6yF2tN0B7-90">
          <mxGeometry width="60" relative="1" as="geometry">
            <mxPoint x="50" y="120" as="sourcePoint" />
            <mxPoint x="110" y="120" as="targetPoint" />
          </mxGeometry>
        </mxCell>
        <mxCell id="2ROspNdm_TZ6yF2tN0B7-98" value="" style="html=1;points=[];perimeter=orthogonalPerimeter;" vertex="1" parent="2ROspNdm_TZ6yF2tN0B7-89">
          <mxGeometry x="45" y="190" width="10" height="60" as="geometry" />
        </mxCell>
        <mxCell id="2ROspNdm_TZ6yF2tN0B7-100" value="return" style="html=1;verticalAlign=bottom;endArrow=open;dashed=1;endSize=8;exitX=1;exitY=0.95;" edge="1" source="2ROspNdm_TZ6yF2tN0B7-98" parent="2ROspNdm_TZ6yF2tN0B7-89">
          <mxGeometry relative="1" as="geometry">
            <mxPoint x="115" y="247" as="targetPoint" />
          </mxGeometry>
        </mxCell>
        <mxCell id="2ROspNdm_TZ6yF2tN0B7-90" value=":Object" style="shape=umlLifeline;perimeter=lifelinePerimeter;whiteSpace=wrap;html=1;container=1;collapsible=0;recursiveResize=0;outlineConnect=0;" vertex="1" parent="1">
          <mxGeometry x="470" y="-490" width="100" height="300" as="geometry" />
        </mxCell>
        <mxCell id="2ROspNdm_TZ6yF2tN0B7-97" style="edgeStyle=orthogonalEdgeStyle;rounded=0;orthogonalLoop=1;jettySize=auto;html=1;" edge="1" parent="1" source="2ROspNdm_TZ6yF2tN0B7-95" target="2ROspNdm_TZ6yF2tN0B7-90">
          <mxGeometry relative="1" as="geometry" />
        </mxCell>
        <mxCell id="2ROspNdm_TZ6yF2tN0B7-95" value="&amp;laquo;Annotation&amp;raquo;&lt;br/&gt;&lt;b&gt;Component&lt;/b&gt;" style="html=1;dropTarget=0;" vertex="1" parent="1">
          <mxGeometry x="680" y="-460" width="180" height="90" as="geometry" />
        </mxCell>
        <mxCell id="2ROspNdm_TZ6yF2tN0B7-96" value="" style="shape=component;jettyWidth=8;jettyHeight=4;" vertex="1" parent="2ROspNdm_TZ6yF2tN0B7-95">
          <mxGeometry x="1" width="20" height="20" relative="1" as="geometry">
            <mxPoint x="-27" y="7" as="offset" />
          </mxGeometry>
        </mxCell>
        <mxCell id="2ROspNdm_TZ6yF2tN0B7-99" value="callback" style="html=1;verticalAlign=bottom;endArrow=block;entryX=1;entryY=0;" edge="1" target="2ROspNdm_TZ6yF2tN0B7-98" parent="1">
          <mxGeometry x="0.0143" y="120" relative="1" as="geometry">
            <mxPoint x="510" y="-370" as="sourcePoint" />
            <Array as="points">
              <mxPoint x="370" y="-300" />
            </Array>
            <mxPoint as="offset" />
          </mxGeometry>
        </mxCell>
      </root>
    </mxGraphModel>
  </diagram>
</mxfile>
